<?xml version="1.0" standalone="no"?><!DOCTYPE svg PUBLIC "-//W3C//DTD SVG 1.1//EN" "http://www.w3.org/Graphics/SVG/1.1/DTD/svg11.dtd"><svg class="icon" width="200px" height="182.86px" viewBox="0 0 1120 1024" version="1.1" xmlns="http://www.w3.org/2000/svg"><path d="M960.966536 147.666576l-43.541854-87.083709A108.990294 108.990294 0 0 0 819.400809 0.000613H617.480383a108.999046 108.999046 0 0 0-98.023873 60.582254l-42.771667 85.543333H365.313969v-36.531397C365.313969 49.161335 316.144495 0.000613 255.719779 0.000613c-60.433468 0-109.594191 49.160723-109.594191 109.59419v40.198541C62.849056 166.772479 0 240.561699 0 328.783185V840.205238c0 100.719529 81.937455 182.656985 182.656985 182.656985h754.958864c100.719529 0 182.656985-81.937455 182.656985-182.656985V328.774433c0-92.79885-69.579446-169.598805-159.306298-181.107857z m-376.166612-54.412002a36.330098 36.330098 0 0 1 32.671707-20.191167h201.93793c13.915889 0 26.440189 7.736884 32.671707 20.191167l26.431437 52.862874h-320.152971l26.431437-52.862874z m-365.620294 16.340229a36.575158 36.575158 0 0 1 36.531396-36.531396 36.575158 36.575158 0 0 1 36.531397 36.531396v36.531397h-73.054041v-36.531397zM73.062794 511.431418h301.484674a291.769808 291.769808 0 0 0-9.242251 73.062794 290.430732 290.430732 0 0 0 39.227054 146.116835H73.062794V511.431418zM1047.21004 840.205238c0 60.424716-49.160723 109.594191-109.594191 109.594191H182.656985c-60.433468 0-109.594191-49.169475-109.594191-109.594191v-36.531397H464.47562c51.523798 45.441067 119.134014 73.062794 193.072021 73.062794 73.946759 0 141.548223-27.621727 193.072021-73.062794h196.590378V840.205238zM438.368011 584.494212c0-120.866936 98.330198-219.188382 219.17963-219.188382 120.866936 0 219.188382 98.321445 219.188381 219.188382 0 120.849432-98.330198 219.17963-219.188381 219.179629-120.849432 0-219.17963-98.321445-219.17963-219.179629z m608.842029 146.116835H910.571763a290.42198 290.42198 0 0 0 39.235805-146.116835c0-25.223643-3.212032-49.712107-9.251003-73.062794h106.662227v219.179629z m0-292.242423H910.571763c-50.604824-87.285008-145.057828-146.125588-253.01537-146.125588-107.94879 0-202.401793 58.84058-253.006618 146.125588H73.062794V328.774433c0-60.424716 49.160723-109.594191 109.594191-109.594191h754.783822l0.210051 0.008752h0.078769c60.380955 0.061265 109.489165 49.186979 109.489165 109.585439v109.594191z m-389.662399 0c80.580875 0 146.125588 65.553465 146.125588 146.125588 0 80.572123-65.553465 146.125588-146.125588 146.125587-80.572123 0-146.116836-65.553465-146.116836-146.125587 0-80.572123 65.553465-146.125588 146.116836-146.125588z m0 219.179629c40.294813 0 73.062794-32.776733 73.062794-73.054041 0-40.286061-32.76798-73.062794-73.062794-73.062794-40.277309 0-73.054042 32.776733-73.054042 73.062794 0 40.286061 32.776733 73.054042 73.054042 73.054041zM182.656985 365.314582a36.531397 36.531397 0 1 0 0-73.071546 36.531397 36.531397 0 0 0 0 73.062794z" fill="#e0620d" /></svg>