<?xml version="1.0" standalone="no"?><!DOCTYPE svg PUBLIC "-//W3C//DTD SVG 1.1//EN" "http://www.w3.org/Graphics/SVG/1.1/DTD/svg11.dtd"><svg class="icon" width="200px" height="200.00px" viewBox="0 0 1024 1024" version="1.1" xmlns="http://www.w3.org/2000/svg"><path d="M647 409.2h34.6V744H647zM733.3 409.2h34.5V744h-34.5zM560.7 409.2h34.6V744h-34.6zM342.7 409.2h34.5V744h-34.5zM429 409.2h34.5V744H429zM256.4 409.2H291V744h-34.6z" fill="#5b217c" /><path d="M246.7 399h532.6L513 199.1 246.7 399z m276.7-235.4l318.1 238.8c13.3 10 6.2 31.1-10.4 31.1H194.9c-16.6 0-23.7-21.1-10.4-31.1l318.2-238.8c6.1-4.6 14.5-4.6 20.7 0z" fill="#5b217c" /><path d="M455.8 316.2c0-31.6 25.6-57.2 57.2-57.2s57.2 25.6 57.2 57.2-25.6 57.2-57.2 57.2-57.2-25.6-57.2-57.2z m26 0c0 17.3 14 31.3 31.3 31.3s31.3-14 31.3-31.3-14-31.3-31.3-31.3c-5.5 0-10.9 1.4-15.6 4.2-9.8 5.6-15.7 15.9-15.7 27.1zM248.8 765.4l-38.1 67.1h604.6l-38.1-67.1H248.8z m-10-34.6h548.5c6.2 0 11.9 3.4 15 8.8L860 841.3c4.7 8.3 1.8 18.9-6.5 23.6-2.6 1.5-5.5 2.2-8.5 2.2H181c-9.5 0-17.3-7.8-17.3-17.3 0-3 0.8-5.9 2.3-8.5l57.7-101.7c3.1-5.4 8.8-8.7 15.1-8.8z" fill="#5b217c" /></svg>