<?xml version="1.0" standalone="no"?><!DOCTYPE svg PUBLIC "-//W3C//DTD SVG 1.1//EN" "http://www.w3.org/Graphics/SVG/1.1/DTD/svg11.dtd"><svg class="icon" width="200px" height="199.80px" viewBox="0 0 1025 1024" version="1.1" xmlns="http://www.w3.org/2000/svg"><path d="M1024.032 494.944l-100.704 0 0-204.8-102.4 0 0-85.344-136.544 0 0 290.144-341.344 0 0-290.144-136.544 0 0 85.344-102.4 0 0 204.8-104.096 0 0 34.144 104.096 0 0 204.8 102.4 0 0 85.344 136.544 0 0-290.144 341.344 0 0 290.144 136.544 0 0-85.344 102.4 0 0-204.8 100.704 0 0-34.144zM138.272 699.744l0-375.456 68.256 0 0 375.456-68.256 0zM308.928 785.056l-68.256 0 0-546.144 68.256 0 0 546.144zM786.816 785.056l-68.256 0 0-546.144 68.256 0 0 546.144zM889.216 699.744l-68.256 0 0-375.456 68.256 0 0 375.456z" fill="#2c2c2c" /></svg>