<?xml version="1.0" standalone="no"?><!DOCTYPE svg PUBLIC "-//W3C//DTD SVG 1.1//EN" "http://www.w3.org/Graphics/SVG/1.1/DTD/svg11.dtd"><svg class="icon" width="200px" height="200.00px" viewBox="0 0 1024 1024" version="1.1" xmlns="http://www.w3.org/2000/svg"><path d="M563.2 870.4H17.066667c-10.24 0-17.066667 6.826667-17.066667 17.066667v68.266666c0 10.24 6.826667 17.066667 17.066667 17.066667H34.133333v17.066667c0 10.24 6.826667 17.066667 17.066667 17.066666s17.066667-6.826667 17.066667-17.066666v-17.066667h443.733333v17.066667c0 10.24 6.826667 17.066667 17.066667 17.066666s17.066667-6.826667 17.066666-17.066666v-17.066667h17.066667c10.24 0 17.066667-6.826667 17.066667-17.066667v-68.266666c0-10.24-6.826667-17.066667-17.066667-17.066667zM51.2 836.266667h477.866667c10.24 0 17.066667-6.826667 17.066666-17.066667v-136.533333c0-10.24-6.826667-17.066667-17.066666-17.066667s-17.066667 6.826667-17.066667 17.066667v17.066666H68.266667V682.666667c0-10.24-6.826667-17.066667-17.066667-17.066667s-17.066667 6.826667-17.066667 17.066667v136.533333c0 10.24 6.826667 17.066667 17.066667 17.066667zM733.866667 699.733333h-102.4c-10.24 0-17.066667 6.826667-17.066667 17.066667v273.066667c0 10.24 6.826667 17.066667 17.066667 17.066666h102.4c10.24 0 17.066667-6.826667 17.066666-17.066666v-273.066667c0-10.24-6.826667-17.066667-17.066666-17.066667zM699.733333 17.066667C522.24 17.066667 375.466667 163.84 375.466667 341.333333s146.773333 324.266667 324.266666 324.266667S1024 518.826667 1024 341.333333 877.226667 17.066667 699.733333 17.066667z m-136.533333 375.466666c-10.24 0-17.066667-6.826667-17.066667-17.066666s-6.826667-17.066667-17.066666-17.066667-17.066667 6.826667-17.066667 17.066667-6.826667 17.066667-17.066667 17.066666-17.066667-6.826667-17.066666-17.066666c0-27.306667 23.893333-51.2 51.2-51.2s51.2 23.893333 51.2 51.2c0 10.24-6.826667 17.066667-17.066667 17.066666z m68.266667-170.666666c-10.24 0-17.066667-6.826667-17.066667-17.066667s-6.826667-17.066667-17.066667-17.066667-17.066667 6.826667-17.066666 17.066667-6.826667 17.066667-17.066667 17.066667-17.066667-6.826667-17.066667-17.066667c0-27.306667 23.893333-51.2 51.2-51.2S648.533333 177.493333 648.533333 204.8c0 10.24-6.826667 17.066667-17.066666 17.066667z m136.533333 273.066666c-10.24 0-17.066667-6.826667-17.066667-17.066666s-6.826667-17.066667-17.066666-17.066667-17.066667 6.826667-17.066667 17.066667-6.826667 17.066667-17.066667 17.066666-17.066667-6.826667-17.066666-17.066666c0-27.306667 23.893333-51.2 51.2-51.2s51.2 23.893333 51.2 51.2c0 10.24-6.826667 17.066667-17.066667 17.066666z m102.4-170.666666c-10.24 0-17.066667-6.826667-17.066667-17.066667s-6.826667-17.066667-17.066666-17.066667-17.066667 6.826667-17.066667 17.066667-6.826667 17.066667-17.066667 17.066667-17.066667-6.826667-17.066666-17.066667c0-27.306667 23.893333-51.2 51.2-51.2S887.466667 279.893333 887.466667 307.2c0 10.24-6.826667 17.066667-17.066667 17.066667z" fill="#0e932e" /></svg>