<?xml version="1.0" standalone="no"?><!DOCTYPE svg PUBLIC "-//W3C//DTD SVG 1.1//EN" "http://www.w3.org/Graphics/SVG/1.1/DTD/svg11.dtd"><svg class="icon" width="200px" height="200.00px" viewBox="0 0 1024 1024" version="1.1" xmlns="http://www.w3.org/2000/svg"><path d="M1008 864H16a16 16 0 0 1-16-16V176a16 16 0 0 1 16-16h992a16 16 0 0 1 16 16v672a16 16 0 0 1-16 16zM32 832h960V192H32v640z" fill="#2c2c2c" /><path d="M112 624H16a16 16 0 0 1-16-16V416a16 16 0 0 1 16-16h96a16 16 0 0 1 16 16v192a16 16 0 0 1-16 16z m-80-32h64V432H32v160z" fill="#2c2c2c" /><path d="M208 704H16a16 16 0 0 1-16-16V336a16 16 0 0 1 16-16h192a16 16 0 0 1 16 16v352a16 16 0 0 1-16 16zM32 672h160V352H32v320z" fill="#2c2c2c" /><path d="M208 608a16 16 0 0 1 0-32c35.296 0 64-28.704 64-64s-28.704-64-64-64a16 16 0 0 1 0-32c52.944 0 96 43.056 96 96s-43.056 96-96 96zM1008 624h-96a16 16 0 0 1-16-16V416a16 16 0 0 1 16-16h96a16 16 0 0 1 16 16v192a16 16 0 0 1-16 16z m-80-32h64V432h-64v160z" fill="#2c2c2c" /><path d="M1008 704H816a16 16 0 0 1-16-16V336a16 16 0 0 1 16-16h192a16 16 0 0 1 16 16v352a16 16 0 0 1-16 16z m-176-32h160V352H832v320z" fill="#2c2c2c" /><path d="M816 608c-52.944 0-96-43.056-96-96s43.056-96 96-96a16 16 0 0 1 0 32c-35.296 0-64 28.704-64 64s28.704 64 64 64a16 16 0 0 1 0 32zM512 864a16 16 0 0 1-16-16V176a16 16 0 0 1 32 0v672a16 16 0 0 1-16 16z" fill="#2c2c2c" /><path d="M512 656c-79.392 0-144-64.608-144-144s64.608-144 144-144 144 64.608 144 144-64.608 144-144 144z m0-256c-61.76 0-112 50.24-112 112s50.24 112 112 112 112-50.24 112-112-50.24-112-112-112z" fill="#2c2c2c" /><path d="M16 256a16 16 0 0 1 0-32c26.464 0 48-21.536 48-48a16 16 0 0 1 32 0c0 44.112-35.888 80-80 80z" fill="#2c2c2c" /><path d="M1008 256c-44.112 0-80-35.888-80-80a16 16 0 0 1 32 0c0 26.464 21.536 48 48 48a16 16 0 0 1 0 32z" fill="#2c2c2c" /><path d="M944 864a16 16 0 0 1-16-16c0-44.112 35.888-80 80-80a16 16 0 0 1 0 32c-26.464 0-48 21.536-48 48a16 16 0 0 1-16 16z" fill="#2c2c2c" /><path d="M80 864a16 16 0 0 1-16-16c0-26.464-21.536-48-48-48a16 16 0 0 1 0-32c44.112 0 80 35.888 80 80a16 16 0 0 1-16 16z" fill="#2c2c2c" /></svg>