<?xml version="1.0" standalone="no"?><!DOCTYPE svg PUBLIC "-//W3C//DTD SVG 1.1//EN" "http://www.w3.org/Graphics/SVG/1.1/DTD/svg11.dtd"><svg class="icon" width="200px" height="200.00px" viewBox="0 0 1024 1024" version="1.1" xmlns="http://www.w3.org/2000/svg"><path d="M694.857143 0q105.714286 0 180.857143 53.428571t75.142857 129.428571l0 512q0 74.285714-71.714286 126.857143t-174.571429 55.428571l121.714286 115.428571q9.142857 8.571429 4.571429 20t-17.142857 11.428571l-603.428571 0q-12.571429 0-17.142857-11.428571t4.571429-20l121.714286-115.428571q-102.857143-2.857143-174.571429-55.428571t-71.714286-126.857143l0-512q0-76 75.142857-129.428571t180.857143-53.428571l365.714286 0zm-457.142857 749.714286q37.714286 0 64.571429-26.857143t26.857143-64.571429-26.857143-64.571429-64.571429-26.857143-64.571429 26.857143-26.857143 64.571429 26.857143 64.571429 64.571429 26.857143zm237.714286-310.857143l0-292.571429-310.857143 0 0 292.571429 310.857143 0zm310.857143 310.857143q37.714286 0 64.571429-26.857143t26.857143-64.571429-26.857143-64.571429-64.571429-26.857143-64.571429 26.857143-26.857143 64.571429 26.857143 64.571429 64.571429 26.857143zm91.428571-310.857143l0-292.571429-329.142857 0 0 292.571429 329.142857 0z" fill="#d81e06" /></svg>